# xmcd CD database file
#
# Track frame offsets:
#	150
#	17435
#	31195
#	46398
#	69812
#	87662
#	101199
#	117031
#	155018
#	173689
#	191870
#	211296
#
# Disc length: 3014 seconds
#
# Revision: 0
# Processed by: cddbd v1.4PL0 Copyright (c) Steve Scherf et al.
# Submitted via: CDex 1.40Release
#
DISCID=9a0bc40c
DTITLE=Big Al Jano's - Blues Mafia Show
DYEAR=2002
DGENRE=Blues
TTITLE0=Problems Of My Own
TTITLE1=Lucille
TTITLE2=Good Enough Excuse
TTITLE3=Heart Of Stone
TTITLE4=Cherie, Cherie
TTITLE5=Give It Everything We've Got
TTITLE6=Lady That Digs The Blues
TTITLE7=The Quest
TTITLE8=Cyberspace Sadie
TTITLE9=Chiquita Margaritta
TTITLE10=Shopping At The Supermarket
TTITLE11=The Hot Dog Man
EXTD=YEAR: 2002 ID3G: 0
EXTT0=
EXTT1=
EXTT2=
EXTT3=
EXTT4=
EXTT5=
EXTT6=
EXTT7=
EXTT8=
EXTT9=
EXTT10=
EXTT11=
PLAYORDER=
